<?xml version="1.0" encoding="UTF-8"?>
<svg version="1.1" viewBox="0 0 32 32" xmlns="http://www.w3.org/2000/svg" xmlns:cc="http://creativecommons.org/ns#" xmlns:dc="http://purl.org/dc/elements/1.1/" xmlns:rdf="http://www.w3.org/1999/02/22-rdf-syntax-ns#">
<metadata>
<rdf:RDF>
<cc:Work rdf:about="">
<dc:format>image/svg+xml</dc:format>
<dc:type rdf:resource="http://purl.org/dc/dcmitype/StillImage"/>
<dc:title/>
</cc:Work>
</rdf:RDF>
</metadata>
<path d="M16 31.625C7.385 31.625.375 24.615.375 16S7.385.375 16 .375 31.625 7.385 31.625 16 24.615 31.625 16 31.625z" fill="#FFF"/>
<path d="M16 .75C24.409.75 31.25 7.591 31.25 16S24.409 31.25 16 31.25.75 24.409.75 16 7.591.75 16 .75M16 0C7.163 0 0 7.163 0 16c0 8.836 7.163 16 16 16s16-7.164 16-16c0-8.837-7.163-16-16-16z" fill="#E5E5E5"/>
<style type="text/css">.st0{fill:none;}</style>
<g transform="matrix(.44892 0 0 .44892 48.458 17.657)" fill="#333">
<path d="m-94.113-9.8102c0.14076-0.42881 1.3625-4.2271 2.7149-8.4407s2.5465-7.7983 2.6536-7.9661c0.27631-0.43325 1.1861-0.43325 1.459 0 0.10573 0.1678 1.3956 4.0576 2.8663 8.6441 1.4708 4.5864 2.7011 8.3847 2.7341 8.4407 0.03303 0.055932-2.8073 0.1017-6.3119 0.1017h-6.372z"/>
<path d="m-76.923 5.1665-4.5502-13.994 9.0225-0.034866c4.9624-0.019176 9.0539-0.00342 9.0924 0.035015 0.03843 0.038435-1.9741 6.3513-4.4723 14.028l-4.5422 13.959z"/>
<path d="m-62.929-9.0953c0-0.035638 1.1828-3.7424 2.6284-8.2373s2.67-8.3094 2.7207-8.4768c0.05076-0.16736 0.18418-0.39617 0.29649-0.50848 0.25239-0.25239 1.048-0.26776 1.2502-0.02415 0.13988 0.16854 5.5787 16.928 5.5787 17.191 0 0.06901-2.6761 0.12087-6.2373 0.12087-3.4305 0-6.2373-0.029158-6.2373-0.064797z"/>
<path d="m-71.396 18.268c1.2363-1.6664 20.996-26.892 21.065-26.892 0.04558 0 0.74566 1.9562 1.5557 4.3471 1.5536 4.5853 1.6022 4.835 1.0934 5.6116-0.18927 0.28886-23.522 17.239-23.976 17.417-0.0756 0.02973 0.0423-0.18824 0.26198-0.48436z"/>
<path d="m-84.963 10.155c-6.6806-4.8653-11.899-8.7569-12.033-8.9733-0.42912-0.69318-0.28978-1.3876 1.1614-5.7883l1.3803-4.1858 10.305 13.196c12.118 15.517 11.226 14.364 11.091 14.352-0.05935-0.0053-5.4164-3.8757-11.905-8.6009z"/>
</g>
</svg>
