<svg viewBox="0 0 32 32" xmlns="http://www.w3.org/2000/svg"><path d="M16 31.625C7.385 31.625.375 24.615.375 16S7.385.375 16 .375 31.625 7.385 31.625 16 24.615 31.625 16 31.625z" fill="#FFF"/><path d="M16 .75C24.409.75 31.25 7.591 31.25 16S24.409 31.25 16 31.25.75 24.409.75 16 7.591.75 16 .75M16 0C7.163 0 0 7.163 0 16c0 8.836 7.163 16 16 16s16-7.164 16-16c0-8.837-7.163-16-16-16z" fill="#E5E5E5"/><path d="M6.209 13.253c.063-.192.611-1.898 1.219-3.79s1.143-3.5 1.19-3.575c.125-.195.533-.195.656 0 .047.075.626 1.821 1.287 3.88.66 2.06 1.212 3.764 1.227 3.79.015.024-1.26.045-2.834.045h-2.86zm7.717 6.723l-2.043-6.282 4.05-.015c2.228-.01 4.065-.002 4.082.015.017.017-.886 2.851-2.008 6.298l-2.039 6.266zm6.282-6.402c0-.016.53-1.68 1.18-3.698s1.198-3.73 1.221-3.805a.647.647 0 0 1 .133-.229c.114-.113.47-.12.562-.01.062.075 2.504 7.599 2.504 7.717 0 .03-1.201.054-2.8.054-1.54 0-2.8-.013-2.8-.029zm-3.801 12.284c.555-.748 9.425-12.072 9.456-12.072.02 0 .335.878.699 1.951.697 2.058.72 2.17.49 2.52-.084.129-10.559 7.738-10.763 7.818-.034.013.02-.084.118-.217zm-6.091-3.642c-2.999-2.184-5.341-3.931-5.401-4.029-.193-.31-.13-.622.52-2.598l.62-1.88 4.627 5.925c5.44 6.966 5.04 6.448 4.979 6.443-.027-.003-2.432-1.74-5.345-3.861z" fill="#333"/></svg>