<svg viewBox="0 0 32 32" xmlns="http://www.w3.org/2000/svg"><g id="Style_2_copy_3"><path d="M16 31.625C7.385 31.625.375 24.615.375 16 .375 7.384 7.385.375 16 .375S31.625 7.384 31.625 16c0 8.615-7.01 15.625-15.625 15.625z" fill="#FFF"/><path d="M16 .75C24.409.75 31.25 7.591 31.25 16S24.409 31.25 16 31.25.75 24.409.75 16 7.591.75 16 .75M16 0C7.163 0 0 7.163 0 16c0 8.836 7.163 16 16 16s16-7.164 16-16c0-8.837-7.163-16-16-16z" fill="#E5E5E5"/><path d="M12.202 23.565c-4.247 0-7.702-3.393-7.702-7.564s3.455-7.565 7.702-7.565c1.857 0 3.652.659 5.052 1.855l-1.959 2.211a4.766 4.766 0 0 0-3.094-1.136c-2.602 0-4.719 2.079-4.719 4.634s2.117 4.634 4.719 4.634c2.201 0 3.642-1.055 4.11-2.947h-4.074v-2.93h7.223v1.465c.001 4.391-2.916 7.343-7.258 7.343zm15.299-8.807h-2.234v-2.233h-1.786v2.233h-2.233v1.786h2.233v2.233h1.786v-2.233h2.234z" fill="#333"/></g></svg>