<svg viewBox="0 0 32 32" xmlns="http://www.w3.org/2000/svg"><g id="Flat_copy"><path d="M16.005 31.614C7.39 31.614.38 24.604.38 15.989S7.39.364 16.005.364 31.63 7.374 31.63 15.989s-7.01 15.625-15.625 15.625z" fill="#FFF"/><path d="M16.005.739c8.409 0 15.25 6.841 15.25 15.25s-6.841 15.25-15.25 15.25S.755 24.398.755 15.989 7.596.739 16.005.739m0-.75c-8.837 0-16 7.163-16 16 0 8.836 7.163 16 16 16s16-7.164 16-16-7.163-16-16-16z" fill="#E5E5E5"/><path d="M24.299 22.932v-6.137c0-3.288-1.755-4.818-4.096-4.818-1.889 0-2.735 1.039-3.206 1.768v-1.517h-3.558c.047 1.005 0 10.704 0 10.704h3.558v-5.978c0-.319.023-.639.117-.867.257-.639.842-1.301 1.825-1.301 1.288 0 1.803.981 1.803 2.42v5.727l3.557-.001zM9.69 10.767c1.24 0 2.013-.823 2.013-1.85-.023-1.05-.773-1.849-1.99-1.849s-2.012.798-2.012 1.848c0 1.028.772 1.85 1.967 1.85h.022zm1.779 12.165V12.228H7.912v10.704h3.557z" fill="#333"/></g></svg>