<svg viewBox="0 0 32 32" xmlns="http://www.w3.org/2000/svg"><g id="Style_2"><path d="M16 31.625C7.384 31.625.375 24.615.375 16 .375 7.384 7.384.375 16 .375 24.615.375 31.625 7.384 31.625 16c0 8.615-7.01 15.625-15.625 15.625z" fill="#FFF"/><path d="M16 .75C24.409.75 31.25 7.591 31.25 16S24.409 31.25 16 31.25.75 24.409.75 16 7.591.75 16 .75M16 0C7.163 0 0 7.163 0 16c0 8.836 7.163 16 16 16s16-7.164 16-16c0-8.837-7.163-16-16-16z" fill="#E5E5E5"/><g fill="#333"><path d="M6.518 21.815l5.189-6.524-5.189-3.172zM19.5 15.746l-3.511 2.162-3.517-2.15L7.11 22.5h17.757z"/><path d="M15.988 16.864l9.494-5.847V9.5H6.518v1.576zm4.275-1.588l5.219 6.567v-9.781z"/></g></g></svg>