<svg viewBox="0 0 32 32" xmlns="http://www.w3.org/2000/svg"><g id="Flat_copy"><path d="M16 31.625C7.385 31.625.375 24.615.375 16 .375 7.384 7.385.375 16 .375S31.625 7.384 31.625 16c0 8.615-7.01 15.625-15.625 15.625z" fill="#FFF"/><path d="M16 .75C24.409.75 31.25 7.591 31.25 16S24.409 31.25 16 31.25.75 24.409.75 16 7.591.75 16 .75M16 0C7.163 0 0 7.163 0 16c0 8.836 7.163 16 16 16s16-7.164 16-16c0-8.837-7.163-16-16-16z" fill="#E5E5E5"/><path d="M21.705 22.647h2.942c0-8.434-6.861-15.3-15.294-15.3v2.934c6.81 0 12.352 5.548 12.352 12.366zm-10.315.005a2.031 2.031 0 0 0 2.039-2.029 2.039 2.039 0 0 0-4.075 0 2.03 2.03 0 0 0 2.036 2.029zm5.116-.004h2.945c0-5.57-4.531-10.101-10.099-10.101v2.933a7.1 7.1 0 0 1 5.057 2.1 7.115 7.115 0 0 1 2.097 5.068z" fill="#333"/></g></svg>