<svg viewBox="0 0 64 64" xmlns="http://www.w3.org/2000/svg"><g id="Layer_3"><path d="M32.001 63.251c-17.23 0-31.25-14.02-31.25-31.25S14.771.751 32.001.751s31.25 14.02 31.25 31.25-14.02 31.25-31.25 31.25z" fill="#FFF"/><path d="M32 1.5c16.818 0 30.5 13.682 30.5 30.5S48.818 62.5 32 62.5 1.5 48.818 1.5 32 15.182 1.5 32 1.5M32 0C14.327 0 0 14.327 0 32c0 17.673 14.327 32 32 32s32-14.327 32-32C64 14.327 49.673 0 32 0z" fill="#E5E5E5"/><path d="M24.933 21.213H17.47l4.41 7.793L16 38.72h7.462l5.879-9.713-4.408-7.794zM40.084 15l-11.76 20.671L35.901 49h7.917L36.24 35.671 48 15h-7.916z" fill="#333" id="Xing_1_"/></g></svg>